<?xml version="1.0" encoding="UTF-8" standalone="no"?>
<svg
   viewBox="0 0 987.03064 152.03943"
   version="1.1"
   id="svg116"
   sodipodi:docname="logo.svg"
   xml:space="preserve"
   width="987.03064"
   height="152.03943"
   inkscape:version="1.2.1 (9c6d41e410, 2022-07-14)"
   xmlns:inkscape="http://www.inkscape.org/namespaces/inkscape"
   xmlns:sodipodi="http://sodipodi.sourceforge.net/DTD/sodipodi-0.dtd"
   xmlns="http://www.w3.org/2000/svg"
   xmlns:svg="http://www.w3.org/2000/svg"><sodipodi:namedview
     id="namedview118"
     pagecolor="#505050"
     bordercolor="#eeeeee"
     borderopacity="1"
     inkscape:showpageshadow="0"
     inkscape:pageopacity="0"
     inkscape:pagecheckerboard="0"
     inkscape:deskcolor="#505050"
     showgrid="false"
     inkscape:zoom="1.1426294"
     inkscape:cx="469.53105"
     inkscape:cy="32.381451"
     inkscape:window-width="1920"
     inkscape:window-height="1009"
     inkscape:window-x="0"
     inkscape:window-y="0"
     inkscape:window-maximized="1"
     inkscape:current-layer="LOGO" /><defs
     id="defs93"><rect
       x="799.66901"
       y="153.46785"
       width="94.366852"
       height="73.557343"
       id="rect1937" /><rect
       x="387.73239"
       y="261.71152"
       width="188.84738"
       height="116.5084"
       id="rect332" /><style
       id="style91">.cls-1{fill:#171321;}.cls-2{fill:#e24329;}.cls-3{fill:#fc6d26;}.cls-4{fill:#fca326;}</style></defs><g
     id="LOGO"
     transform="translate(-143.81017,-113.61414)"><g
       id="g3653"
       transform="matrix(0.54563547,0,0,0.54563547,232.71494,87.949175)"><path
         style="fill:#e24329;fill-opacity:1"
         d="m -55.940845,311.76896 0.61838,-10.75 c 0.3401,-5.9125 1.30511,-14.33125 2.14446,-18.70832 0.83935,-4.37708 1.17653,-8.30789 0.74928,-8.73514 -1.59483,-1.59483 -11.8734,-2.80768 -24.09303,-2.84291 l -12.61351,-0.0364 -6.5,-4.96728 c -3.575,-2.73201 -9.341735,-6.42814 -12.814955,-8.21363 l -6.31495,-3.24635 -2.20092,2.72279 c -2.54126,3.14384 -15.56453,24.88405 -21.27822,35.52052 -3.4861,6.48963 -6.39096,9.26069 -6.39096,6.09659 0,-1.51364 8.03461,-16.38266 17.41825,-32.23459 4.10398,-6.93292 7.0526,-12.60531 6.55249,-12.60531 -0.5001,0 -2.42932,-2.37621 -4.28715,-5.28046 -3.9118,-6.11512 -10.69333,-12.38579 -17.03072,-15.74777 -3.99705,-2.12043 -4.49309,-2.78942 -5.04299,-6.80133 -0.33543,-2.44727 -0.60988,-7.09435 -0.60988,-10.32684 0,-5.63608 -0.18035,-6.05095 -4.39512,-10.11042 -4.65906,-4.4874 -6.96363,-10.34379 -9.73284,-24.73318 -1.78247,-9.26206 -1.48464,-31.81245 0.54112,-40.97149 3.91847,-17.7165 12.14363,-37.57814 20.92503,-50.528506 6.38348,-9.41406 21.20167,-24.06454 30.90419,-30.554456 11.708345,-7.831581 21.996855,-11.224143 34.257625,-11.296203 14.37639,-0.0845 16.64693,2.60398 9.32368,11.039839 -15.77939,18.17673 -37.933535,54.006936 -37.753395,61.059136 0.16045,6.28193 0.96782,6.58071 6.930925,2.56493 12.19567,-8.21305 32.91644,-30.686366 43.86625,-47.576446 2.4021,-3.70524 4.71001,-6.7368 5.12868,-6.7368 2.04109,0 3.26778,6.46856 2.71301,14.30613 -1.45788,20.596216 -13.0203,43.536206 -29.75088,59.026156 -6.4152,5.93949 -6.84457,6.60048 -6.34595,9.76912 0.41759,2.65369 -0.28094,4.93284 -3.18699,10.39859 -8.04305,15.12745 -16.453535,25.41104 -27.501515,33.6264 l -6.88457,5.11941 3.73037,2.73788 c 5.58384,4.09823 11.17522,9.85988 14.20541,14.63799 l 2.701385,4.25963 6.24207,-8.42792 c 16.95998,-22.89905 40.68363,-46.46867 55.16938,-54.81119 2.52332,-1.45321 5.10434,-2.6422 5.7356,-2.6422 1.7212,0 6.81315,10.75745 9.7998,20.70341 2.20309,7.33664 2.6588,10.87119 2.74578,21.29659 0.0886,10.6166 -0.19505,13.09448 -1.88238,16.44554 -2.58154,5.12698 -4.93075,6.03363 -4.2881,1.65494 0.65911,-4.4908 -1.37101,-3.38568 -3.16851,1.72483 -1.3989,3.97724 -1.36384,4.28534 0.7253,6.37448 l 2.19525,2.19525 2.49204,-2.34115 c 4.95053,-4.65078 6.06363,-10.60263 5.99467,-32.05389 -0.0524,-16.30321 -0.43249,-21.22135 -2.31838,-30 -4.04708,-18.83875 -11.17596,-33.10275 -21.2568,-42.5322 -5.72296,-5.35315 -5.84011,-7.36566 -0.14572,-2.50305 13.75923,11.74941 23.80119,31.34521 27.32095,53.31388 1.41189,8.8123 2.59465,10.53327 3.4357496,4.99916 1.89501,-12.46839 5.83648,-25.54157 10.60452,-35.17337 4.19331,-8.47079 6.57909,-11.84987 12.8853304,-18.25 4.25656,-4.31993 8.28636,-7.85442 8.95513,-7.85442 0.66876,0 -1.62673,2.82591 -5.10108,6.2798 -15.4644704,15.37338 -23.1086404,39.28435 -23.2481604,72.7202 -0.0764,18.31541 1.30181,25.41036 5.89987996,30.37176 2.08347004,2.24809 2.85330004,2.52626 4.52115004,1.63366 2.69845,-1.44417 2.68703,-6.99703 -0.0209,-10.14464 l -2.031,-2.36078 0.281,2.91275 c 0.39634,4.10828 -1.76589,4.33003 -3.91034004,0.40103 -2.60766996,-4.77771 -2.59996996,-29.63468 0.0119,-38.31378 2.47362004,-8.21978 8.74064004,-21.5 10.14598004,-21.5 1.9441804,0 12.5542604,6.7895 19.4710304,12.45971 12.06863,9.89358 31.66536,31.25038 43.39762,47.29534 2.10934,2.88472 4.17461,5.24495 4.58948,5.24495 0.41488,0 1.27487,-1.14248 1.91109,-2.53884 1.55757,-3.41849 9.2976,-11.58856 14.19163,-14.98013 2.18495,-1.51417 3.97183,-3.02933 3.97084,-3.36703 -9.8e-4,-0.3377 -1.97967,-1.86352 -4.39708,-3.39072 -10.28579,-6.49801 -23.35718,-22.35717 -30.66933,-37.21024 -2.78149,-5.65002 -3.06994,-6.91443 -2.07538,-9.09726 1.04476,-2.29299 0.84407,-2.78583 -2.10065,-5.15866 -18.4817,-14.89233 -31.90635,-39.74937 -34.35019,-63.602686 -0.61977,-6.04923 1.21857,-13.66668 3.29339,-13.64673 0.44057,0.004 1.82348,1.79817 3.07313,3.98653 4.60091,8.05694 17.99562,24.784869 27.72377,34.622716 10.12111,10.23526 22.10091,19.75029 23.65618,18.78908 0.46637,-0.28824 0.84795,-2.51846 0.84795,-4.95606 0,-3.37331 -1.20177,-6.7431 -5.03103,-14.10708 -6.45081,-12.405447 -20.08099,-32.862686 -27.87893,-41.842886 -7.21256,-8.306063 -9.94669,-13.043347 -8.41311,-14.576926 0.58129,-0.581296 3.98635,-1.558696 7.5668,-2.172 11.96478,-2.04948 27.35755,2.48663 41.93391,12.357541 13.094525,8.867445 28.681175,26.861475 36.319485,41.929101 15.57982,30.73332 19.30573,60.55501 11.2992,90.43709 -1.73489,6.475 -2.93529,8.82851 -6.38275,12.51412 -4.00739,4.28423 -4.28139,4.95997 -4.87587,12.02519 -1.13543,13.49409 -1.17197,13.59461 -5.81694,16.0015 -6.36343,3.29735 -12.15032,8.39223 -15.57435,13.71192 -1.68949,2.62485 -3.76684,5.48829 -4.61633,6.3632 -1.398535,1.44039 -0.80421,2.85814 6.28801,15 11.36528,19.45729 17.48512,30.93937 16.83624,31.58825 -1.47379,1.47379 -3.70792,-1.44844 -10.56147,-13.8143 -10.00202,-18.04667 -18.166505,-30.86469 -19.659365,-30.86469 -2.28576,0 -12.68482,6.01494 -19.05776,11.02324 l -6.33281,4.97676 h -12.3378 c -10.57364,0 -22.69271,1.25979 -24.83607,2.58173 -0.34702,0.21403 0.0183,3.4332 0.81188,7.15371 0.79356,3.72051 1.75248,12.16456 2.13095,18.76456 l 0.68811,12 c 0.95638,15.48867 -9.57364,13.9537 -46.40977,14.4144 -33.5168,-0.49741 -44.9052,-0.97415 -44.39581,-13.91437 z m 4.98351,-78.67008 13.17793,-0.63185 3.22825,-11.59903 c 1.77553,-6.37947 3.43942,-13.7283 3.69754,-16.33073 0.25811,-2.60242 1.08783,-5.24502 1.84382,-5.87244 0.75599,-0.62742 1.36672,-2.54816 1.35717,-4.26831 -0.0388,-6.9959 -5.1532,-25.62756 -7.03472,-25.62756 -0.4292,0 -4.24596,2.31793 -8.48169,5.15096 -9.38308,6.27579 -29.48137,25.47408 -42.19764,40.30802 l -9.39449,10.95899 5.31295,2.27695 c 2.92212,1.25232 7.56295,3.40784 10.31295,4.79003 4.02857,2.02483 5.97143,2.41242 10,1.99495 2.75,-0.28497 10.93007,-0.80246 18.17793,-1.14998 z m 114.07167,-3.07234 c 5.63727,-2.61667 10.24977,-4.98463 10.25,-5.26214 0.001,-1.61425 -26.25828,-29.96402 -34.96128,-37.74411 -12.43406,-11.11548 -23.65615,-19.0335 -25.02948,-17.66017 -3.4048304,3.40483 -8.1308304,29.40884 -5.3448004,29.40884 0.52028,0 1.49904,3.2625 2.1750304,7.25 0.67599,3.9875 2.4725,11.525 3.99225,16.75 l 2.76318,9.5 12.95275,0.7151 c 7.12401,0.39331 14.07775,0.88839 15.45275,1.10017 5.97262,0.91994 8.04811,0.44546 17.7496,-4.05769 z"
         id="path3409"
         sodipodi:nodetypes="csssscsscssssssssssssssssssssssssscsscssssssssscssssssssssssssscssssssssssssssscssssssssssssssssssssscsssscccscssssssscssssscssssscsss" /><path
         style="fill:#fc6d26;fill-opacity:1"
         d="m -55.940845,311.76896 0.61838,-10.75 c 0.3401,-5.9125 1.30511,-14.33125 2.14446,-18.70832 0.83935,-4.37708 1.17653,-8.30789 0.74928,-8.73514 -1.59483,-1.59483 -11.8734,-2.80768 -24.09303,-2.84291 l -12.61351,-0.0364 -6.5,-4.96728 c -3.575,-2.73201 -9.341735,-6.42814 -12.814955,-8.21363 l -6.31495,-3.24635 -5.89936,-0.5 c -0.5001,0 -2.42932,-2.37621 -4.28715,-5.28046 -3.9118,-6.11512 -10.69333,-12.38579 -17.03072,-15.74777 -3.99705,-2.12043 -4.49309,-2.78942 -5.04299,-6.80133 -0.33543,-2.44727 -0.60988,-7.09435 -0.60988,-10.32684 0,-5.63608 -0.18035,-6.05095 -4.39512,-10.11042 9.69995,-9.45323 33.43437,-5.48737 33.43437,-5.48737 l 3.73037,2.73788 c 5.58384,4.09823 11.17522,9.85988 14.20541,14.63799 l 2.701385,4.25963 c 4.383361,6.91182 17.731358,19.74351 34.769655,15.39695 48.16065,-12.28603 35.005075,5.5182 52.847262,5.57031 17.7568319,0.0519 4.9024071,-18.50529 48.379052,-5.36795 17.779626,5.37247 32.896327,-8.81558 39.252271,-16.48059 0,0 1.27487,-1.14248 1.91109,-2.53884 1.55757,-3.41849 9.2976,-11.58856 14.19163,-14.98013 2.18495,-1.51417 3.97183,-3.02933 3.97084,-3.36703 0,0 24.100205,-5.98237 34.415365,4.87493 -4.00739,4.28423 -4.28139,4.95997 -4.87587,12.02519 -1.13543,13.49409 -1.17197,13.59461 -5.81694,16.0015 -6.36343,3.29735 -12.15032,8.39223 -15.57435,13.71192 -1.68949,2.62485 -3.76684,5.48829 -4.61633,6.3632 l -7.096585,1.90926 c -2.28576,0 -12.68482,6.01494 -19.05776,11.02324 l -6.33281,4.97676 h -12.3378 c -10.57364,0 -22.69271,1.25979 -24.83607,2.58173 -0.34702,0.21403 0.0183,3.4332 0.81188,7.15371 0.79356,3.72051 1.75248,12.16456 2.13095,18.76456 l 0.68811,12 c 0.95638,15.48867 -9.57364,13.9537 -46.40977,14.4144 -33.5168,-0.49741 -44.9052,-0.97415 -44.39581,-13.91437 z m 4.98351,-78.67008 13.17793,-0.63185 c 7.699348,63.3547 -59.072857,13.60317 -56.98176,-7.2801 l 5.31295,2.27695 c 2.92212,1.25232 7.56295,3.40784 10.31295,4.79003 4.02857,2.02483 5.97143,2.41242 10,1.99495 2.75,-0.28497 10.93007,-0.80246 18.17793,-1.14998 z m 124.32167,-8.33448 c -11.029287,17.84887 -61.319303,57.55808 -56.4051,7.50456 l 12.95275,0.7151 c 7.12401,0.39331 14.07775,0.88839 15.45275,1.10017 5.97262,0.91994 8.04811,0.44546 17.7496,-4.05769 5.63727,-2.61667 10.24977,-4.98463 10.25,-5.26214"
         id="path3585"
         sodipodi:nodetypes="ssssscssccssssccsssssscssccsssccscsssscccssccssssccsscc" /><path
         style="fill:#fca326;fill-opacity:1"
         d="m -55.940845,311.76896 0.61838,-10.75 c 0.3401,-5.9125 1.30511,-14.33125 2.14446,-18.70832 0.83935,-4.37708 1.17653,-8.30789 0.74928,-8.73514 0,0 42.086787,43.27161 83.66252,-0.22484 0,0 0.0183,3.4332 0.81188,7.15371 0.79356,3.72051 1.75248,12.16456 2.13095,18.76456 l 0.68811,12 c 0.95638,15.48867 -9.57364,13.9537 -46.40977,14.4144 -33.5168,-0.49741 -44.9052,-0.97415 -44.39581,-13.91437 z"
         id="path3583"
         sodipodi:nodetypes="cssccssccc" /></g><text
       xml:space="preserve"
       id="text330"
       style="font-style:normal;font-variant:normal;font-weight:bold;font-stretch:normal;font-size:46.3782px;line-height:1.25;font-family:Roboto;-inkscape-font-specification:'Roboto Bold';white-space:pre;shape-inside:url(#rect332);fill:#171321;fill-opacity:1;stroke:none"
       transform="matrix(3.4337399,0,0,3.800673,-676.15658,-900.36062)"><tspan
         x="387.73242"
         y="304.35665"
         id="tspan4054">o</tspan></text><path
       class="cls-1"
       d="m 428.92,171.51 h 22.78 c -3.8,-24.22 -24.77,-41.09 -52.06,-41.09 -32.29,0 -56.52,23.74 -56.52,63.5 0,39.05 23.14,63.27 57.18,63.27 30.55,0 52.42,-19.65 52.42,-51.46 v -14.82 h -50.07 v 17.47 h 28.44 c -0.36,17.6 -12.11,28.74 -30.67,28.74 -20.66,0 -34.82,-15.48 -34.82,-43.44 0,-27.78 14.4,-43.2 34.34,-43.2 14.88,0 25.06,7.95 28.98,21.03 z"
       id="path95" /><path
       class="cls-1"
       d="m 467.78,255.5 h 21.81 V 163 h -21.81 z m 11,-107.2 c 6.93,0 12.59,-5.31 12.59,-11.81 0,-6.5 -5.66,-11.87 -12.59,-11.87 -6.93,0 -12.65,5.3 -12.65,11.87 0,6.57 5.62,11.81 12.61,11.81 z"
       id="path97" /><path
       class="cls-1"
       d="M 554.9,163 H 536.64 V 140.78 H 514.83 V 163 H 501.7 v 16.87 h 13.13 v 51.46 c -0.12,17.41 12.54,26 28.92,25.49 a 44.29,44.29 0 0 0 12.84,-2.17 l -3.68,-17.06 a 26.57,26.57 0 0 1 -6.38,0.85 c -5.49,0 -9.89,-1.93 -9.89,-10.73 v -47.89 h 18.26 z"
       id="path99" /><path
       class="cls-1"
       d="m 571.78,255.5 h 76.7 V 236.76 H 594.14 V 132.1 h -22.36 z"
       id="path101" /><path
       class="cls-1"
       d="m 755.21,255.5 h 21.45 v -14.58 h 1.26 c 3.44,6.75 10.61,16.21 26.52,16.21 21.81,0 38.14,-17.3 38.14,-47.78 0,-30.85 -16.81,-47.6 -38.2,-47.6 -16.33,0 -23.14,9.82 -26.46,16.51 H 777 V 132.1 h -21.79 z m 21.39,-46.27 c 0,-18 7.71,-29.59 21.75,-29.59 14.52,0 22,12.35 22,29.59 0,17.24 -7.59,30 -22,30 -13.92,0 -21.75,-12.05 -21.75,-30 z"
       id="path105" /><text
       xml:space="preserve"
       id="text1935"
       style="font-style:normal;font-weight:normal;font-size:40px;line-height:1.25;font-family:sans-serif;white-space:pre;shape-inside:url(#rect1937);fill:#171321;fill-opacity:1;stroke:none"
       transform="matrix(4.0208336,0,0,4.365012,-2365.329,-574.86486)"><tspan
         x="799.66992"
         y="190.24957"
         id="tspan4058"><tspan
           style="font-weight:bold;font-family:Roboto;-inkscape-font-specification:'Roboto Bold'"
           id="tspan4056">ster</tspan></tspan></text></g></svg>
